<svg width="150" height="150" viewBox="0 0 150 150" fill="none" xmlns="http://www.w3.org/2000/svg">
<g id="reshot-icon-message-board-CAHKFYB48V 1" clip-path="url(#clip0_302_70)">
<g id="Layer_x0020_1">
<g id="_206720552">
<path id="_206721272" d="M122.93 67.3258C125.38 67.3258 127.241 68.1104 128.553 69.4464C129.97 70.8883 130.638 72.8746 130.638 75.134V101.187C130.638 103.418 129.974 105.697 128.563 107.369C127.699 108.394 126.586 109.181 125.211 109.593L126.395 114.369L127.659 119.468L123.127 116.804L111.403 109.914H79.9386C77.5032 109.914 75.12 108.883 73.3479 107.338C71.4853 105.714 70.2545 103.479 70.2545 101.187L122.93 67.3258Z" fill="#00897B"/>
<path id="_206721104" fill-rule="evenodd" clip-rule="evenodd" d="M71.7979 32.8124H71.8834H109.423C113.222 32.8124 116.861 34.4584 119.564 36.9118C122.391 39.4775 124.234 42.9746 124.234 46.4723V91.1677C124.234 94.6476 122.46 97.6013 119.705 99.6991C116.978 101.775 113.258 103.002 109.423 103.002H71.826H71.7979V32.8125L71.7979 32.8124Z" fill="#4DB6AC"/>
<path id="_206720936" fill-rule="evenodd" clip-rule="evenodd" d="M35.6558 32.8124H71.7979V103.002H56.0739L26.3915 120.566L31.1901 102.442C28.4708 101.828 25.8546 100.684 23.8115 99.1376C21.1337 97.1102 19.3616 94.3848 19.3616 91.1677V46.4723C19.3616 42.9821 21.532 39.5456 24.6622 37.0063C27.7441 34.506 31.83 32.8124 35.6558 32.8124Z" fill="#26A69A"/>
<g id="Group">
<path id="_206720840" fill-rule="evenodd" clip-rule="evenodd" d="M55.4596 67.1238C55.4596 63.2566 52.3246 60.1217 48.4574 60.1217C44.5901 60.1217 41.4553 63.2566 41.4553 67.1238C41.4553 70.991 44.5901 74.126 48.4574 74.126C52.3246 74.126 55.4596 70.991 55.4596 67.1238Z" fill="white"/>
<path id="_206720720" fill-rule="evenodd" clip-rule="evenodd" d="M71.7979 60.1217C67.9306 60.1217 64.7956 63.2566 64.7956 67.1238C64.7956 70.991 67.9306 74.126 71.7979 74.126C75.665 74.126 78.8 70.991 78.8 67.1238C78.8 63.2566 75.665 60.1217 71.7979 60.1217Z" fill="white"/>
<path id="_206720696" fill-rule="evenodd" clip-rule="evenodd" d="M88.136 67.1238C88.136 70.991 91.271 74.126 95.1383 74.126C99.0054 74.126 102.14 70.991 102.14 67.1238C102.14 63.2566 99.0054 60.1217 95.1383 60.1217C91.271 60.1217 88.136 63.2566 88.136 67.1238Z" fill="white"/>
</g>
</g>
</g>
</g>
<defs>
<clipPath id="clip0_302_70">
<rect width="150" height="150" fill="white"/>
</clipPath>
</defs>
</svg>
